<svg width="24" height="24" viewBox="0 0 24 24" fill="none" xmlns="http://www.w3.org/2000/svg">
<path d="M21.4997 12C21.4997 12.414 21.1637 12.75 20.7497 12.75H4.56069L10.2807 18.47C10.5737 18.763 10.5737 19.238 10.2807 19.531C10.1347 19.677 9.94269 19.751 9.75069 19.751C9.55869 19.751 9.36673 19.678 9.22073 19.531L2.22073 12.531C1.92773 12.238 1.92773 11.763 2.22073 11.47L9.22073 4.46999C9.51373 4.17699 9.9887 4.17699 10.2817 4.46999C10.5747 4.76299 10.5747 5.23803 10.2817 5.53103L4.56173 11.251H20.7497C21.1637 11.25 21.4997 11.586 21.4997 12Z" fill="#41416E"/>
</svg>
