<svg width="28" height="28" viewBox="0 0 28 28" fill="none" xmlns="http://www.w3.org/2000/svg">
<path d="M21.5837 2.625H8.16699C5.34599 2.625 3.79199 4.179 3.79199 7V21C3.79199 23.6168 5.55016 25.375 8.16699 25.375H21.5837C23.0303 25.375 24.2087 24.1978 24.2087 22.75V15.75V5.25C24.2087 3.80217 23.0303 2.625 21.5837 2.625ZM10.5003 7.29167H17.5003C17.9833 7.29167 18.3753 7.68367 18.3753 8.16667C18.3753 8.64967 17.9833 9.04167 17.5003 9.04167H10.5003C10.0173 9.04167 9.62533 8.64967 9.62533 8.16667C9.62533 7.68367 10.0173 7.29167 10.5003 7.29167ZM10.5003 10.7917H15.167C15.65 10.7917 16.042 11.1837 16.042 11.6667C16.042 12.1497 15.65 12.5417 15.167 12.5417H10.5003C10.0173 12.5417 9.62533 12.1497 9.62533 11.6667C9.62533 11.1837 10.0173 10.7917 10.5003 10.7917ZM22.4587 22.75C22.4587 23.233 22.0655 23.625 21.5837 23.625H8.16699C5.79866 23.625 5.54199 21.7887 5.54199 21C5.54199 20.2113 5.79866 18.375 8.16699 18.375H21.5837C21.7528 18.375 21.9163 18.3552 22.0761 18.3249C22.1275 18.3155 22.1764 18.298 22.2265 18.2851C22.3035 18.2653 22.384 18.2513 22.4587 18.2245V22.75Z" fill="white"/>
</svg>
