<svg width="29" height="28" viewBox="0 0 29 28" fill="none" xmlns="http://www.w3.org/2000/svg">
<path d="M23.841 5.33152V20.9999L23.8327 20.9835V20.9999L21.0924 19.4319C20.9827 19.3701 20.9161 19.2534 20.9161 19.1286C20.9161 19.1286 20.9161 9.92236 20.9161 9.88269C20.8682 6.98119 19.1123 5.25109 16.1793 5.24992H10.0976C9.89462 5.24992 9.83402 5.07264 9.85152 4.87081C9.99736 3.18614 10.9936 2.33325 12.8311 2.33325H20.8343H20.8426C22.8376 2.33325 23.841 3.33652 23.841 5.33152ZM19.1777 9.99947V25.6666L12.1777 21.6673L5.17773 25.6666V9.99947C5.17773 7.9998 6.17762 6.99992 8.17729 6.99992H16.177C18.1779 6.99992 19.1777 7.9998 19.1777 9.99947ZM9.96118 12.1333C9.96118 13.3559 10.9562 14.35 12.1777 14.35C13.3992 14.35 14.3943 13.3559 14.3943 12.1333C14.3943 10.9106 13.3992 9.91659 12.1777 9.91659C10.9562 9.91659 9.96118 10.9106 9.96118 12.1333ZM15.7011 18.3702C15.7011 17.0099 14.7071 15.6333 12.8078 15.6333H11.55C9.64947 15.6333 8.65666 17.0099 8.65666 18.3702V18.6666C8.65666 18.9886 8.91799 19.2499 9.23999 19.2499H15.1189C15.4409 19.2499 15.7022 18.9886 15.7022 18.6666V18.3702H15.7011Z" fill="white"/>
</svg>
