<svg width="28" height="28" viewBox="0 0 28 28" fill="none" xmlns="http://www.w3.org/2000/svg">
<path d="M24.5 25.375H3.5C3.017 25.375 2.625 24.983 2.625 24.5C2.625 24.017 3.017 23.625 3.5 23.625H24.5C24.983 23.625 25.375 24.017 25.375 24.5C25.375 24.983 24.983 25.375 24.5 25.375ZM16.3333 19.25V5.25C16.3333 4.08333 15.75 3.5 14.5833 3.5H13.4167C12.25 3.5 11.6667 4.08333 11.6667 5.25V19.25C11.6667 20.4167 12.25 21 13.4167 21H14.5833C15.75 21 16.3333 20.4167 16.3333 19.25ZM24.5 19.25V9.91667C24.5 8.75 23.9167 8.16667 22.75 8.16667H21.5833C20.4167 8.16667 19.8333 8.75 19.8333 9.91667V19.25C19.8333 20.4167 20.4167 21 21.5833 21H22.75C23.9167 21 24.5 20.4167 24.5 19.25ZM8.16667 19.25V13.4167C8.16667 12.25 7.58333 11.6667 6.41667 11.6667H5.25C4.08333 11.6667 3.5 12.25 3.5 13.4167V19.25C3.5 20.4167 4.08333 21 5.25 21H6.41667C7.58333 21 8.16667 20.4167 8.16667 19.25Z" fill="white"/>
</svg>
