<svg width="24" height="24" viewBox="0 0 24 24" fill="none" xmlns="http://www.w3.org/2000/svg">
<path d="M19.9005 19.42C19.9515 19.723 19.7175 20 19.4105 20H4.59054C4.28254 20 4.04849 19.723 4.10049 19.42L4.50851 17C4.53251 16.856 4.65753 16.75 4.80453 16.75H19.1975C19.3435 16.75 19.4685 16.856 19.4935 17L19.9005 19.42ZM19.4905 7.53L16.9905 9.04001C16.5385 9.31301 15.9515 9.181 15.6605 8.74L12.8215 4.44102C12.4335 3.85302 11.5705 3.85201 11.1805 4.44001L8.34054 8.73002C8.05054 9.18002 7.46051 9.31001 7.00051 9.03L4.51052 7.53C3.77052 7.08 2.85053 7.72001 3.02053 8.57001L4.46749 15.016C4.49849 15.153 4.61952 15.25 4.76052 15.25H19.2405C19.3805 15.25 19.5025 15.153 19.5335 15.016L20.9805 8.57001C21.1505 7.72001 20.2305 7.08 19.4905 7.53Z" fill="#FF7355"/>
</svg>
