<svg width="24" height="24" viewBox="0 0 24 24" fill="none" xmlns="http://www.w3.org/2000/svg">
<path d="M17.356 8.64906C17.213 8.50406 16.996 8.46006 16.81 8.53706C16.622 8.61406 16.499 8.79707 16.499 9.00007C16.499 9.76207 16.338 10.4581 16.022 11.0701C15.529 12.0251 14.726 12.6401 14.055 13.0151C16.915 6.44709 11.337 2.62406 11.277 2.58406C11.123 2.48106 10.925 2.47209 10.764 2.55909C10.601 2.64609 10.5 2.81607 10.5 3.00007C10.5 5.19707 9.037 6.49409 7.621 7.74909C7.275 8.05509 6.942 8.35104 6.646 8.64704C5.142 10.151 4.5 11.752 4.5 14.001C4.5 18.136 7.864 21.501 12 21.501C16.136 21.501 19.5 18.136 19.5 14.001C19.5 11.984 18.719 10.0331 17.356 8.64906Z" fill="#FF2045"/>
</svg>
