<svg width="32" height="32" viewBox="0 0 32 32" fill="none" xmlns="http://www.w3.org/2000/svg">
<path opacity="0.4" d="M14.0465 20.0255L8.01725 16.7361H8V22.2667C8 23.1974 8.49195 24.0588 9.27995 24.5548C13.7599 27.3721 18.2387 27.3721 22.7187 24.5548C23.5067 24.0588 23.9987 23.1987 23.9987 22.2667V16.7361H23.9814L17.9521 20.0255C16.7361 20.6895 15.2639 20.6895 14.0465 20.0255Z" fill="#FF7355"/>
<path d="M25.667 14.228V21.3333C25.667 21.8853 26.115 22.3333 26.667 22.3333C27.219 22.3333 27.667 21.8853 27.667 21.3333V14.228H25.667Z" fill="#FF7355"/>
<path d="M26.5821 10.54L17.9541 5.83198C16.7368 5.16798 15.2646 5.16798 14.0459 5.83198L5.418 10.54C3.52733 11.5707 3.52733 14.2853 5.418 15.3173L14.0459 20.0253C15.2633 20.6893 16.7355 20.6893 17.9541 20.0253L26.5821 15.3173C27.0727 15.0493 27.43 14.6653 27.666 14.2293C28.338 12.9853 27.9807 11.3027 26.5821 10.54Z" fill="#FF7355"/>
</svg>
