<svg width="24" height="24" viewBox="0 0 24 24" fill="none" xmlns="http://www.w3.org/2000/svg">
<g opacity="0.4">
<path d="M18.6496 12.4501C15.9096 15.1901 13.8396 15.9301 10.2196 16.8901C10.0496 16.9401 9.85966 16.8901 9.72966 16.7601L7.20964 14.2401C7.07964 14.1101 7.02964 13.9101 7.08964 13.7401C8.14964 10.2301 8.87964 8.1601 11.6196 5.4201C14.6296 2.4101 19.1397 2.9701 20.3797 3.1901C20.5797 3.2301 20.7396 3.3801 20.7796 3.5801C21.0296 4.8301 21.6697 9.4401 18.6597 12.4501H18.6496Z" fill="#6B2ABC"/>
</g>
<path d="M7.1798 16.82C7.9298 17.57 7.85981 18.85 7.02981 19.68C6.26981 20.44 3.3798 21.16 3.0598 21.24C3.0398 21.24 3.01981 21.24 2.99981 21.24C2.92981 21.24 2.86981 21.21 2.81981 21.17C2.75981 21.11 2.72982 21.02 2.75982 20.93C2.84982 20.59 3.66982 17.58 4.41982 16.82C4.80982 16.43 5.31979 16.21 5.82979 16.23C6.31979 16.24 6.79982 16.45 7.16982 16.82H7.1798ZM14.7598 15.34C14.7598 15.34 8.7198 9.30004 8.7098 9.30004C9.1398 8.47004 9.6498 7.68004 10.3098 6.86004C10.2498 6.82004 10.1798 6.80004 10.1098 6.82004L7.7398 7.32004C5.9398 7.61004 4.39982 8.85004 3.72982 10.54L2.7698 12.93C2.7298 13.01 2.7498 13.11 2.8098 13.18C2.8598 13.24 2.92981 13.27 2.99981 13.27C3.01981 13.27 3.03979 13.27 3.04979 13.26L7.54979 12.26C7.77979 11.54 8.0098 10.89 8.2698 10.27L13.7798 15.77C13.1498 16.02 12.4898 16.24 11.7598 16.46L10.7598 20.95C10.7398 21.04 10.7698 21.13 10.8398 21.19C10.8798 21.23 10.9398 21.25 10.9998 21.25C11.0298 21.25 11.0598 21.24 11.0898 21.23L13.4798 20.27C15.1798 19.6 16.4198 18.07 16.6998 16.28L17.1898 14.01C17.2098 13.94 17.1898 13.87 17.1498 13.81C16.3498 14.45 15.5798 14.94 14.7598 15.34ZM15.2498 11.02C16.4898 11.02 17.4998 10.01 17.4998 8.78004C17.4998 7.55004 16.4898 6.54004 15.2498 6.54004C14.0098 6.54004 12.9998 7.55004 12.9998 8.78004C12.9998 10.01 14.0098 11.02 15.2498 11.02Z" fill="#6B2ABC"/>
</svg>
