<svg width="63" height="63" viewBox="0 0 63 63" fill="none" xmlns="http://www.w3.org/2000/svg">
<path fill-rule="evenodd" clip-rule="evenodd" d="M0.276367 50.286C6.78841 58.0579 16.5669 63 27.4997 63C47.1057 63 62.9995 47.1062 62.9995 27.5002C62.9995 16.5674 58.0575 6.7889 50.2855 0.276855C55.4517 6.44259 58.562 14.3894 58.562 23.0627C58.562 42.6687 42.6682 58.5625 23.0622 58.5625C14.3889 58.5625 6.44211 55.4521 0.276367 50.286Z" fill="#F9F9F9"/>
<path fill-rule="evenodd" clip-rule="evenodd" d="M0.276367 50.286C6.78841 58.0579 16.5669 63 27.4997 63C47.1057 63 62.9995 47.1062 62.9995 27.5002C62.9995 16.5674 58.0575 6.7889 50.2855 0.276855C55.4517 6.44259 58.562 14.3894 58.562 23.0627C58.562 42.6687 42.6682 58.5625 23.0622 58.5625C14.3889 58.5625 6.44211 55.4521 0.276367 50.286Z" fill="black" fill-opacity="0.03"/>
</svg>
